<?xml version="1.0" encoding="UTF-8"?>
<svg version="1.1" xmlns="http://www.w3.org/2000/svg" width="48" height="32">
<path d="M0 0 C3.625 0.4375 3.625 0.4375 5.9375 2.75 C6.494375 3.636875 7.05125 4.52375 7.625 5.4375 C8.285 6.4275 8.945 7.4175 9.625 8.4375 C9.76025391 10.5222168 9.76025391 10.5222168 9.6015625 12.88671875 C9.55 13.73427734 9.4984375 14.58183594 9.4453125 15.45507812 C9.38085938 16.33615234 9.31640625 17.21722656 9.25 18.125 C9.19328125 19.01767578 9.1365625 19.91035156 9.078125 20.83007812 C8.93673702 23.03337413 8.78534022 25.23551539 8.625 27.4375 C4.80458292 29.59829504 2.92556223 29.22739919 -1.375 28.4375 C-3.04725729 28.74154678 -4.71580104 29.06878912 -6.375 29.4375 C-7.035 29.1075 -7.695 28.7775 -8.375 28.4375 C-8.20097656 27.73238281 -8.02695312 27.02726562 -7.84765625 26.30078125 C-7.34183015 23.23656196 -7.47842727 20.70589299 -7.8125 17.625 C-7.91433594 16.64917969 -8.01617188 15.67335938 -8.12109375 14.66796875 C-8.24677734 13.56388672 -8.24677734 13.56388672 -8.375 12.4375 C-9.14690674 12.54408936 -9.91881348 12.65067871 -10.71411133 12.76049805 C-14.20316716 13.23251742 -17.69502262 13.67903468 -21.1875 14.125 C-22.40244141 14.29322266 -23.61738281 14.46144531 -24.86914062 14.63476562 C-26.03251953 14.77978516 -27.19589844 14.92480469 -28.39453125 15.07421875 C-30.00485229 15.28630981 -30.00485229 15.28630981 -31.64770508 15.50268555 C-34.375 15.4375 -34.375 15.4375 -36.26049805 14.15161133 C-37.375 12.4375 -37.375 12.4375 -37.1875 9.375 C-36.375 6.4375 -36.375 6.4375 -34.375 4.4375 C-34.375 5.0975 -34.375 5.7575 -34.375 6.4375 C-32.7971875 6.3446875 -32.7971875 6.3446875 -31.1875 6.25 C-26.04290411 6.20406611 -21.35037472 7.59649678 -16.42578125 8.9765625 C-12.96307357 9.49973728 -11.40178227 9.13805965 -8.375 7.4375 C-6.65788757 4.99253957 -6.65788757 4.99253957 -5.375 2.4375 C-3.375 0.4375 -3.375 0.4375 0 0 Z " fill="#525258" transform="translate(38.375,2.5625)"/>
<path d="M0 0 C0.33 0.66 0.66 1.32 1 2 C2.60875 1.9071875 2.60875 1.9071875 4.25 1.8125 C10.04244112 1.78124582 15.46106737 3.44909886 21 5 C21 6.32 21 7.64 21 9 C17.73203268 9.42249352 14.46075627 9.80834969 11.1875 10.1875 C10.25873047 10.30802734 9.32996094 10.42855469 8.37304688 10.55273438 C7.48037109 10.65263672 6.58769531 10.75253906 5.66796875 10.85546875 C4.84578857 10.95496826 4.0236084 11.05446777 3.17651367 11.15698242 C1 11 1 11 -0.80737305 9.70043945 C-2 8 -2 8 -1.75 4.9375 C-1 2 -1 2 0 0 Z " fill="#C8D8F7" transform="translate(3,7)"/>
<path d="M0 0 C3.875 0.875 3.875 0.875 5 2 C5.14115161 4.67058851 5.04247107 7.32432238 5 10 C3.1875 10.625 3.1875 10.625 1 11 C0.01 10.34 -0.98 9.68 -2 9 C-2.43132515 4.94554358 -2.30019361 3.45029042 0 0 Z " fill="#E3E6EC" transform="translate(37,18)"/>
<path d="M0 0 C8.57142857 1 8.57142857 1 12 2 C12 3.32 12 4.64 12 6 C8.37 6 4.74 6 1 6 C1 5.01 1 4.02 1 3 C0.34 2.67 -0.32 2.34 -1 2 C-0.67 1.34 -0.34 0.68 0 0 Z " fill="#828BA4" transform="translate(12,10)"/>
<path d="M0 0 C1.44246094 -0.02126953 1.44246094 -0.02126953 2.9140625 -0.04296875 C5.375 0.1875 5.375 0.1875 7.375 2.1875 C3.73701572 4.56618203 1.52570952 3.94987522 -2.625 3.1875 C-4.29725729 3.49154678 -5.96580104 3.81878912 -7.625 4.1875 C-8.285 3.8575 -8.945 3.5275 -9.625 3.1875 C-9.625 2.5275 -9.625 1.8675 -9.625 1.1875 C-6.37294841 0.22421457 -3.38614248 0.02281767 0 0 Z " fill="#7A7534" transform="translate(39.625,27.8125)"/>
<path d="M0 0 C0.33 0.66 0.66 1.32 1 2 C3.64 2 6.28 2 9 2 C9 2.33 9 2.66 9 3 C6.69 3 4.38 3 2 3 C2.309375 3.8971875 2.309375 3.8971875 2.625 4.8125 C3 7 3 7 1 10 C0.34 10 -0.32 10 -1 10 C-2.15837626 5.94568308 -1.83691257 3.78187881 0 0 Z " fill="#35303E" transform="translate(3,7)"/>
<path d="M0 0 C1.32 0.33 2.64 0.66 4 1 C3.67 1.33 3.34 1.66 3 2 C4.32 2.66 5.64 3.32 7 4 C2.545 4.495 2.545 4.495 -2 5 C-1.34 3.35 -0.68 1.7 0 0 Z " fill="#7E879E" transform="translate(6,13)"/>
<path d="M0 0 C0 0.66 0 1.32 0 2 C-4.75 3.125 -4.75 3.125 -7 2 C-7 1.34 -7 0.68 -7 0 C-3.98968256 -0.93423645 -3.13349732 -1.04449911 0 0 Z " fill="#9F9935" transform="translate(37,29)"/>
<path d="M0 0 C1.98 0 3.96 0 6 0 C6 0.99 6 1.98 6 3 C4.35 3 2.7 3 1 3 C0.67 2.01 0.34 1.02 0 0 Z " fill="#C7C035" transform="translate(26,11)"/>
<path d="" fill="#9BADB7" transform="translate(0,0)"/>
<path d="" fill="#9BADB7" transform="translate(0,0)"/>
<path d="" fill="#9BADB7" transform="translate(0,0)"/>
</svg>
